<mxfile host="app.diagrams.net" modified="2023-09-29T13:30:21.339Z" agent="Mozilla/5.0 (Windows NT 10.0; Win64; x64) AppleWebKit/537.36 (KHTML, like Gecko) Chrome/117.0.0.0 Safari/537.36 Edg/117.0.2045.43" etag="Ju6wiIEvq-M8bG1xI9ei" version="22.0.0" type="device">
  <diagram name="Page-1" id="FBfZPeUPGjEI5H4kB1Yn">
    <mxGraphModel dx="868" dy="474" grid="1" gridSize="10" guides="1" tooltips="1" connect="1" arrows="1" fold="1" page="1" pageScale="1" pageWidth="1169" pageHeight="827" math="0" shadow="0">
      <root>
        <mxCell id="0" />
        <mxCell id="1" parent="0" />
        <mxCell id="wg3RDyRuT80G8KoctHj8-2" style="edgeStyle=orthogonalEdgeStyle;rounded=0;orthogonalLoop=1;jettySize=auto;html=1;" edge="1" parent="1" source="wg3RDyRuT80G8KoctHj8-1">
          <mxGeometry relative="1" as="geometry">
            <mxPoint x="584" y="169.9999999999999" as="targetPoint" />
          </mxGeometry>
        </mxCell>
        <mxCell id="wg3RDyRuT80G8KoctHj8-1" value="START" style="ellipse;whiteSpace=wrap;html=1;" vertex="1" parent="1">
          <mxGeometry x="524" y="40" width="120" height="80" as="geometry" />
        </mxCell>
        <mxCell id="wg3RDyRuT80G8KoctHj8-5" style="edgeStyle=orthogonalEdgeStyle;rounded=0;orthogonalLoop=1;jettySize=auto;html=1;" edge="1" parent="1" source="wg3RDyRuT80G8KoctHj8-4" target="wg3RDyRuT80G8KoctHj8-6">
          <mxGeometry relative="1" as="geometry">
            <mxPoint x="584" y="320" as="targetPoint" />
          </mxGeometry>
        </mxCell>
        <mxCell id="wg3RDyRuT80G8KoctHj8-4" value="int r&lt;br&gt;double keliling, luas, &lt;br&gt;phi=3.14" style="shape=hexagon;perimeter=hexagonPerimeter2;whiteSpace=wrap;html=1;fixedSize=1;" vertex="1" parent="1">
          <mxGeometry x="504" y="170" width="160" height="100" as="geometry" />
        </mxCell>
        <mxCell id="wg3RDyRuT80G8KoctHj8-17" style="edgeStyle=orthogonalEdgeStyle;rounded=0;orthogonalLoop=1;jettySize=auto;html=1;entryX=0.5;entryY=0;entryDx=0;entryDy=0;" edge="1" parent="1" source="wg3RDyRuT80G8KoctHj8-6" target="wg3RDyRuT80G8KoctHj8-7">
          <mxGeometry relative="1" as="geometry" />
        </mxCell>
        <mxCell id="wg3RDyRuT80G8KoctHj8-6" value="input r" style="shape=parallelogram;perimeter=parallelogramPerimeter;whiteSpace=wrap;html=1;fixedSize=1;" vertex="1" parent="1">
          <mxGeometry x="517" y="320" width="136" height="70" as="geometry" />
        </mxCell>
        <mxCell id="wg3RDyRuT80G8KoctHj8-14" style="edgeStyle=orthogonalEdgeStyle;rounded=0;orthogonalLoop=1;jettySize=auto;html=1;entryX=0.5;entryY=0;entryDx=0;entryDy=0;" edge="1" parent="1" source="wg3RDyRuT80G8KoctHj8-7" target="wg3RDyRuT80G8KoctHj8-13">
          <mxGeometry relative="1" as="geometry" />
        </mxCell>
        <mxCell id="wg3RDyRuT80G8KoctHj8-7" value="keliling=2*phi*r&lt;br&gt;luas=phi*r*r" style="rounded=0;whiteSpace=wrap;html=1;" vertex="1" parent="1">
          <mxGeometry x="512.5" y="440" width="143" height="80" as="geometry" />
        </mxCell>
        <mxCell id="wg3RDyRuT80G8KoctHj8-15" style="edgeStyle=orthogonalEdgeStyle;rounded=0;orthogonalLoop=1;jettySize=auto;html=1;" edge="1" parent="1" source="wg3RDyRuT80G8KoctHj8-13" target="wg3RDyRuT80G8KoctHj8-16">
          <mxGeometry relative="1" as="geometry">
            <mxPoint x="584" y="699.9999999999998" as="targetPoint" />
          </mxGeometry>
        </mxCell>
        <mxCell id="wg3RDyRuT80G8KoctHj8-13" value="tampilkan hasil keliling dan luas" style="shape=parallelogram;perimeter=parallelogramPerimeter;whiteSpace=wrap;html=1;fixedSize=1;" vertex="1" parent="1">
          <mxGeometry x="478.5" y="560" width="211" height="100" as="geometry" />
        </mxCell>
        <mxCell id="wg3RDyRuT80G8KoctHj8-16" value="FINISH" style="ellipse;whiteSpace=wrap;html=1;" vertex="1" parent="1">
          <mxGeometry x="524" y="699.9999999999998" width="120" height="80" as="geometry" />
        </mxCell>
      </root>
    </mxGraphModel>
  </diagram>
</mxfile>
